HIERARCHY
ROOT Hips
{
	OFFSET 0.000000 0.000000 0.000000
	CHANNELS 6 Xposition Yposition Zposition Zrotation Yrotation Xrotation 
	JOINT LeftUpLeg_virtual
	{
		OFFSET 0.000000 0.000000 0.000000
		CHANNELS 3 Zrotation Yrotation Xrotation
		JOINT LeftUpLeg
		{
			OFFSET 10.205400 -3.823500 0.155100
			CHANNELS 3 Zrotation Yrotation Xrotation
			JOINT LeftLeg
			{
				OFFSET 0.708757 -12.982077 0.567790
				CHANNELS 3 Zrotation Yrotation Xrotation
				JOINT LeftFoot
				{
					OFFSET -0.708756 -10.717838 -2.184338
					CHANNELS 3 Zrotation Yrotation Xrotation
					JOINT LeftToeBase
					{
						OFFSET 0.108149 -7.191104 7.560241
						CHANNELS 3 Zrotation Yrotation Xrotation
						End Site
						{
							OFFSET 0.000000 0.000000 0.000000
						}
					}
				}
			}
		}
	}
	JOINT RightUpLeg_virtual
	{
		OFFSET 0.000000 0.000000 0.000000
		CHANNELS 3 Zrotation Yrotation Xrotation
		JOINT RightUpLeg
		{
			OFFSET -10.205400 -3.823500 0.005500
			CHANNELS 3 Zrotation Yrotation Xrotation
			JOINT RightLeg
			{
				OFFSET -0.708756 -12.982134 0.610632
				CHANNELS 3 Zrotation Yrotation Xrotation
				JOINT RightFoot
				{
					OFFSET 0.708754 -10.717769 -1.945823
					CHANNELS 3 Zrotation Yrotation Xrotation
					JOINT RightToeBase
					{
						OFFSET -0.108140 -7.191069 7.372968
						CHANNELS 3 Zrotation Yrotation Xrotation
						End Site
						{
							OFFSET 0.000000 0.000000 0.000000
						}
					}
				}
			}
		}
	}
	JOINT Spine_virtual
	{
		OFFSET 0.000000 0.000000 0.000000
		CHANNELS 3 Zrotation Yrotation Xrotation
		JOINT Spine
		{
			OFFSET 0.000000 6.876099 0.125700
			CHANNELS 3 Zrotation Yrotation Xrotation
			JOINT Spine1
			{
				OFFSET 0.000000 8.022060 0.146608
				CHANNELS 3 Zrotation Yrotation Xrotation
				JOINT Spine2
				{
					OFFSET 0.000000 9.168068 0.167552
					CHANNELS 3 Zrotation Yrotation Xrotation
					JOINT Neck_virtual
					{
						OFFSET 0.000000 0.000000 0.000000
						CHANNELS 3 Zrotation Yrotation Xrotation
						JOINT Neck
						{
							OFFSET 0.000000 10.314075 0.188496
							CHANNELS 3 Zrotation Yrotation Xrotation
							JOINT Head
							{
								OFFSET 0.000000 7.643700 -2.377400
								CHANNELS 3 Zrotation Yrotation Xrotation
								End Site
								{
									OFFSET 0.000000 0.000000 0.000000
								}
							}
						}
					}
					JOINT LeftShoulder_virtual
					{
						OFFSET 0.000000 0.000000 0.000000
						CHANNELS 3 Zrotation Yrotation Xrotation
						JOINT LeftShoulder
						{
							OFFSET 4.392200 8.824978 0.174984
							CHANNELS 3 Zrotation Yrotation Xrotation
							JOINT LeftArm
							{
								OFFSET 8.771219 -2.981674 -0.026999
								CHANNELS 3 Zrotation Yrotation Xrotation
								JOINT LeftForeArm
								{
									OFFSET 8.512804 0.000000 -0.000000
									CHANNELS 3 Zrotation Yrotation Xrotation
									JOINT LeftHand
									{
										OFFSET 18.484802 0.000000 -0.000000
										CHANNELS 3 Zrotation Yrotation Xrotation
										End Site
										{
											OFFSET 0.000000 0.000000 0.000000
										}
									}
								}
							}
						}
					}
					JOINT RightShoulder_virtual
					{
						OFFSET 0.000000 0.000000 0.000000
						CHANNELS 3 Zrotation Yrotation Xrotation
						JOINT RightShoulder
						{
							OFFSET -4.392200 8.824993 0.141379
							CHANNELS 3 Zrotation Yrotation Xrotation
							JOINT RightArm
							{
								OFFSET -8.771282 -2.981682 -0.094208
								CHANNELS 3 Zrotation Yrotation Xrotation
								JOINT RightForeArm
								{
									OFFSET -8.494598 0.000000 0.000000
									CHANNELS 3 Zrotation Yrotation Xrotation
									JOINT RightHand
									{
										OFFSET -18.483803 0.000000 0.000001
										CHANNELS 3 Zrotation Yrotation Xrotation
										End Site
										{
											OFFSET 0.000000 0.000000 0.000000
										}
									}
								}
							}
						}
					}
				}
			}
		}
	}
}
MOTION
Frames: 11
Frame Time: 0.033333
-10.520910 24.190731 -16.105654 -179.995647 -1.833232 179.981536 4.927775 -4.905062 -9.957962 0.916630 0.436322 -46.235668 21.896885 1.678769 42.953769 -8.680131 -5.885994 14.007524 0.000000 0.000000 0.000000 5.646423 -0.441389 -8.914652 -1.971496 -3.951346 -48.395780 -6.395215 0.723377 36.798283 4.002962 4.244700 28.652654 0.000000 0.000000 0.000000 3.487098 0.640396 -13.879955 -1.659263 -3.868652 0.045105 -2.995512 0.282175 15.379151 -0.000198 0.001039 0.008855 -3.279091 1.082489 16.545158 4.091744 -0.925670 28.103143 0.000000 0.000000 0.000000 -1.635866 1.643994 12.802330 -13.000088 -16.568605 4.219905 -13.629542 -14.306833 15.960106 -1.075149 -40.349243 7.190384 0.000000 0.000000 0.000000 -4.850955 2.317384 12.491674 17.950610 17.961676 2.865284 26.108362 4.699133 12.949561 -6.230314 36.472022 -2.585471 0.000000 0.000000 0.000000 
-10.516194 24.179249 -16.167093 -179.987711 -1.582789 179.975894 4.866091 -4.801027 -10.156606 0.444038 0.233535 -46.153863 21.766725 1.977754 40.486370 -8.727448 -6.282545 14.114490 0.000000 0.000000 0.000000 5.594967 -0.378200 -8.924902 -1.886736 -3.219976 -47.955527 -6.485544 0.847176 34.292362 4.036683 3.941716 29.057073 0.000000 0.000000 0.000000 3.513574 0.777618 -14.019521 -1.601467 -3.982084 0.092747 -3.200345 0.269812 15.312784 0.013212 0.019697 0.002074 -3.516605 1.068933 16.441623 3.807517 -0.874242 28.147683 0.000000 0.000000 0.000000 -1.877069 1.592637 12.665665 -13.250357 -16.505921 4.462892 -13.401255 -13.505272 16.129415 -0.984487 -40.801201 7.219910 0.000000 0.000000 0.000000 -5.072088 2.287435 12.344087 18.057178 17.861522 2.929560 26.110285 4.520331 13.136892 -6.062035 35.836961 -2.334260 0.000000 0.000000 0.000000 
-10.529564 24.153629 -16.193367 -179.998297 -1.155681 179.993912 4.757879 -4.611033 -10.377503 0.053196 0.084520 -46.200892 21.680081 2.219093 38.196658 -8.741823 -6.626304 14.115948 0.000000 0.000000 0.000000 5.495032 -0.218373 -8.968638 -1.779233 -2.361664 -47.647461 -6.564156 0.949585 31.831280 4.097449 3.640574 29.497528 0.000000 0.000000 0.000000 3.479931 0.959837 -14.233418 -1.581739 -4.069407 0.270794 -3.372760 0.214895 15.310485 0.009059 -0.016169 0.005188 -3.691214 1.048846 16.410102 3.510365 -0.859605 28.098886 0.000000 0.000000 0.000000 -2.036533 1.597551 12.586418 -13.526968 -16.427921 4.584940 -13.416015 -12.525547 16.322320 -0.983971 -41.128906 7.333622 0.000000 0.000000 0.000000 -5.234077 2.269412 12.238047 18.105650 17.801613 3.032737 26.114977 4.515151 13.407062 -5.919274 35.289443 -2.117913 0.000000 0.000000 0.000000 
-10.555313 24.136887 -16.164911 -179.987164 -0.791942 179.933561 4.684185 -4.369730 -10.424621 -0.093864 -0.023157 -46.339767 21.541059 2.472684 36.052498 -8.666012 -6.703082 14.105715 0.000000 0.000000 0.000000 5.436449 -0.060668 -8.945108 -1.704437 -1.430573 -47.662983 -6.626732 1.006319 29.403780 4.185314 3.355147 29.904559 0.000000 0.000000 0.000000 3.394023 1.258540 -14.338970 -1.611320 -4.499233 0.537549 -3.491001 0.211227 15.365912 0.000045 -0.002000 -0.007454 -3.826631 1.052628 16.458196 3.259395 -0.847362 28.021587 0.000000 0.000000 0.000000 -2.156421 1.615142 12.543306 -13.767107 -16.401753 4.740795 -13.556655 -11.494570 16.506154 -0.945896 -41.262109 7.431902 0.000000 0.000000 0.000000 -5.358324 2.271035 12.221808 18.157571 17.742735 3.051664 26.231471 4.552496 13.613812 -5.709284 34.856972 -1.747895 0.000000 0.000000 0.000000 
-10.561661 24.123989 -16.096458 -179.994923 -0.473085 -179.971523 4.621107 -4.121744 -10.455155 -0.400662 0.104591 -46.665997 21.537395 2.749343 33.918822 -8.527489 -7.046533 14.125792 0.000000 0.000000 0.000000 5.480665 0.189103 -8.846980 -1.632595 -0.576814 -48.091946 -6.642385 1.047392 27.022540 4.305870 3.108282 30.366331 0.000000 0.000000 0.000000 3.331845 1.536129 -14.396521 -1.658074 -4.832346 0.649842 -3.550710 0.175198 15.406472 -0.004369 -0.009452 -0.006403 -3.865237 1.050056 16.539856 3.059778 -0.858028 27.885374 0.000000 0.000000 0.000000 -2.201932 1.617845 12.549977 -14.003369 -16.456984 4.830044 -13.831306 -10.760449 16.720629 -0.950887 -41.146774 7.561183 0.000000 0.000000 0.000000 -5.399320 2.268351 12.246343 18.274813 17.663303 3.173546 26.297215 4.505346 13.603984 -5.545056 34.495577 -1.699113 0.000000 0.000000 0.000000 
-10.565392 24.118155 -16.022287 -179.994295 -0.364928 -179.981659 4.592711 -4.020120 -10.221345 -0.738216 0.291770 -47.109164 21.333244 3.099599 31.816592 -8.336364 -7.179716 14.152121 0.000000 0.000000 0.000000 5.624169 0.328633 -8.540132 -1.544068 0.180258 -48.965418 -6.613464 1.082845 24.621403 4.414839 2.900968 30.745171 0.000000 0.000000 0.000000 3.296312 1.734554 -14.133398 -1.728714 -5.100578 0.636217 -3.557053 0.175317 15.349824 0.013087 0.005284 0.001425 -3.873608 1.071148 16.658978 2.915310 -0.883078 27.710969 0.000000 0.000000 0.000000 -2.220364 1.611568 12.627521 -14.202754 -16.559616 4.950466 -14.227232 -10.478526 17.008354 -0.921394 -40.718968 7.628167 0.000000 0.000000 0.000000 -5.393016 2.306695 12.268428 18.399445 17.520629 3.289034 26.378742 4.246787 13.325942 -5.436317 34.190523 -1.614734 0.000000 0.000000 0.000000 
-10.560347 24.117218 -16.000938 179.991768 -0.399487 179.998420 4.597269 -3.958345 -9.838558 -1.344038 0.602628 -47.623173 21.031517 3.410743 29.759595 -8.136055 -7.257054 14.130553 0.000000 0.000000 0.000000 5.845897 0.390549 -8.037966 -1.409782 0.854461 -50.181741 -6.548049 1.061661 22.261407 4.483393 2.769773 31.056997 0.000000 0.000000 0.000000 3.312922 1.789189 -13.717163 -1.792209 -5.239840 0.571076 -3.552342 0.192112 15.253855 -0.004665 -0.005720 0.000464 -3.851273 1.150544 16.775356 2.753407 -0.909396 27.501934 0.000000 0.000000 0.000000 -2.165594 1.701449 12.673944 -14.291288 -16.613621 4.831397 -14.764839 -10.528099 17.323764 -0.980096 -40.133300 7.726122 0.000000 0.000000 0.000000 -5.333147 2.373586 12.353614 18.518367 17.404883 3.323236 26.431425 3.704778 13.004610 -5.297969 33.888800 -1.480989 0.000000 0.000000 0.000000 
-10.535043 24.105392 -16.022991 -179.992888 -0.549436 -179.985143 4.681412 -4.023728 -9.330115 -2.130099 1.020330 -48.194593 20.665221 3.799864 27.972408 -7.898657 -7.337715 14.054166 0.000000 0.000000 0.000000 6.146249 0.375913 -7.457816 -1.160610 1.409705 -51.570486 -6.457504 1.055279 20.124348 4.434115 2.691933 31.153268 0.000000 0.000000 0.000000 3.406857 1.803028 -13.070218 -1.780103 -5.255690 0.278980 -3.478996 0.245593 15.188071 0.032765 -0.000734 0.014342 -3.831650 1.262044 16.879011 2.654500 -0.929209 27.170359 0.000000 0.000000 0.000000 -2.169234 1.773559 12.743719 -14.300945 -16.641331 4.693321 -15.203643 -10.804479 17.561624 -1.041008 -39.555005 7.772063 0.000000 0.000000 0.000000 -5.309961 2.465682 12.376625 18.582578 17.309407 3.455845 26.353588 3.080155 12.783966 -5.343113 33.663397 -1.517230 0.000000 0.000000 0.000000 
-10.518885 24.086691 -16.072104 -179.994445 -0.683025 -179.988148 4.736133 -4.124339 -8.772332 -3.006122 1.529613 -48.746661 20.259372 4.139300 26.509508 -7.593849 -7.403740 13.870460 0.000000 0.000000 0.000000 6.402075 0.258290 -6.917331 -0.792228 2.012523 -52.820045 -6.315827 0.985373 18.291571 4.277394 2.702789 31.036059 0.000000 0.000000 0.000000 3.529489 1.711716 -12.499855 -1.752755 -5.159345 0.183084 -3.407784 0.295228 15.125457 0.014898 -0.018316 -0.018386 -3.782921 1.386752 17.025068 2.590196 -0.937031 26.698175 0.000000 0.000000 0.000000 -2.075710 1.986948 12.811080 -14.100530 -16.580783 4.490619 -15.674849 -11.066901 17.380209 -1.108873 -38.996589 7.811059 0.000000 0.000000 0.000000 -5.218334 2.662786 12.528203 18.569408 17.306379 3.484517 26.273866 2.561410 12.546564 -5.267224 33.541389 -1.373275 0.000000 0.000000 0.000000 
-10.530527 24.055254 -16.137306 179.996686 -0.696813 -179.983244 4.745550 -4.387767 -8.293725 -3.835094 2.073820 -49.302897 19.899690 4.555570 25.429967 -7.283605 -7.502328 13.618498 0.000000 0.000000 0.000000 6.517296 -0.071463 -6.526382 -0.399464 2.540875 -53.752366 -6.210993 0.933027 16.835754 3.927243 2.755382 30.651782 0.000000 0.000000 0.000000 3.652753 1.540563 -12.123240 -1.747072 -4.962382 0.345713 -3.300175 0.385854 15.160706 0.008864 0.033717 0.009252 -3.670717 1.458248 17.097208 2.576871 -0.920095 26.057725 0.000000 0.000000 0.000000 -1.984715 2.049914 12.812075 -13.780364 -16.602616 4.029035 -16.091156 -11.251038 17.132992 -1.182188 -38.608116 7.659734 0.000000 0.000000 0.000000 -5.129800 2.703527 12.546848 18.450504 17.304740 3.333939 26.126204 2.174062 12.506692 -5.242352 33.593288 -1.232690 0.000000 0.000000 0.000000 
-10.563150 24.017326 -16.191994 -179.996713 -0.723543 -179.987670 4.671000 -4.921918 -7.929360 -4.625396 2.715568 -49.822330 19.555188 4.754821 24.660248 -6.903850 -7.523313 13.369095 0.000000 0.000000 0.000000 6.526122 -0.700583 -6.221424 -0.037747 3.047300 -54.409010 -6.109018 0.822298 15.739406 3.478172 2.875052 30.128818 0.000000 0.000000 0.000000 3.711407 1.199660 -11.971662 -1.826546 -4.864942 0.668906 -3.203643 0.338433 15.224700 -0.023179 -0.033577 0.005685 -3.571040 1.515138 17.171208 2.603219 -0.894774 25.247615 0.000000 0.000000 0.000000 -1.886483 2.119442 12.817328 -13.498564 -16.640375 3.839587 -16.331242 -11.498690 16.535593 -1.139359 -38.153911 7.372240 0.000000 0.000000 0.000000 -5.023446 2.876367 12.618923 18.286419 17.433090 3.369582 26.040346 2.034702 12.472231 -5.417255 33.665033 -1.198326 0.000000 0.000000 0.000000 
